<svg width="22" height="17" viewBox="0 0 22 17" fill="none" xmlns="http://www.w3.org/2000/svg">
<path d="M8 11.7586L5.032 14.7701C4.70167 15.1052 4.28084 15.3334 3.8227 15.4259C3.36457 15.5183 2.88971 15.4709 2.45815 15.2895C2.0266 15.1081 1.65773 14.801 1.39819 14.4069C1.13864 14.0129 1.00007 13.5496 1 13.0756V11.7586L2.357 4.87496C2.53824 3.95487 3.02806 3.12691 3.74312 2.53197C4.45817 1.93702 5.35429 1.61184 6.279 1.61174H15.721C16.6457 1.61184 17.5418 1.93702 18.2569 2.53197C18.9719 3.12691 19.4618 3.95487 19.643 4.87496L21 11.7586V13.0746C20.9999 13.5486 20.8614 14.0119 20.6018 14.4059C20.3423 14.8 19.9734 15.1071 19.5418 15.2885C19.1103 15.4699 18.6354 15.5173 18.1773 15.4249C17.7192 15.3324 17.2983 15.1042 16.968 14.7691L14 11.7586H8Z" stroke="white" stroke-width="2" stroke-linecap="round" stroke-linejoin="round"/>
<path d="M8 1.61174L9 3.6411H13L14 1.61174" stroke="white" stroke-width="2" stroke-linecap="round" stroke-linejoin="round"/>
</svg>
