<svg width="15" height="25" viewBox="0 0 15 25" fill="none" xmlns="http://www.w3.org/2000/svg">
<path d="M12.75 0.53833H2.25C1.65326 0.53833 1.08097 0.778863 0.65901 1.20702C0.237053 1.63517 0 2.21587 0 2.82136L0 22.6077C0 23.2132 0.237053 23.7939 0.65901 24.222C1.08097 24.6502 1.65326 24.8907 2.25 24.8907H12.75C13.3467 24.8907 13.919 24.6502 14.341 24.222C14.7629 23.7939 15 23.2132 15 22.6077V2.82136C15 2.21587 14.7629 1.63517 14.341 1.20702C13.919 0.778863 13.3467 0.53833 12.75 0.53833ZM7.5 23.3687C7.30328 23.3685 7.10851 23.3291 6.92682 23.2526C6.74512 23.1761 6.58006 23.064 6.44105 22.9228C6.1603 22.6375 6.00273 22.2508 6.003 21.8477C6.00313 21.6481 6.04201 21.4504 6.11741 21.2661C6.19281 21.0817 6.30327 20.9142 6.44246 20.7732C6.72358 20.4883 7.10471 20.3284 7.502 20.3287C7.89929 20.329 8.28021 20.4894 8.56095 20.7746C8.8417 21.0598 8.99926 21.4466 8.999 21.8497C8.99873 22.2528 8.84066 22.6393 8.55954 22.9242C8.27842 23.2091 7.89729 23.3689 7.5 23.3687ZM12.75 18.2344C12.749 18.3848 12.6896 18.5287 12.5848 18.635C12.48 18.7413 12.3382 18.8015 12.19 18.8026H2.812C2.66348 18.8026 2.52104 18.7427 2.41602 18.6362C2.311 18.5296 2.252 18.3851 2.252 18.2344V3.39263C2.252 3.24193 2.311 3.0974 2.41602 2.99084C2.52104 2.88427 2.66348 2.82441 2.812 2.82441H12.186C12.3342 2.82547 12.476 2.88568 12.5808 2.99201C12.6856 3.09834 12.745 3.24226 12.746 3.39263L12.75 18.2344Z" fill="white"/>
</svg>
