<?xml version="1.0" encoding="UTF-8" standalone="no"?>
<!-- Created with Inkscape (http://www.inkscape.org/) -->

<svg
   width="210mm"
   height="297mm"
   viewBox="0 0 210 297"
   version="1.1"
   id="svg5"
   xml:space="preserve"
   inkscape:version="1.2.2 (732a01da63, 2022-12-09)"
   sodipodi:docname="Noa v1.svg"
   xmlns:inkscape="http://www.inkscape.org/namespaces/inkscape"
   xmlns:sodipodi="http://sodipodi.sourceforge.net/DTD/sodipodi-0.dtd"
   xmlns="http://www.w3.org/2000/svg"
   xmlns:svg="http://www.w3.org/2000/svg"><sodipodi:namedview
     id="namedview7"
     pagecolor="#ffffff"
     bordercolor="#000000"
     borderopacity="0.25"
     inkscape:showpageshadow="2"
     inkscape:pageopacity="0.0"
     inkscape:pagecheckerboard="0"
     inkscape:deskcolor="#d1d1d1"
     inkscape:document-units="mm"
     showgrid="false"
     inkscape:zoom="0.50646226"
     inkscape:cx="531.13533"
     inkscape:cy="255.69526"
     inkscape:window-width="1920"
     inkscape:window-height="991"
     inkscape:window-x="-9"
     inkscape:window-y="-9"
     inkscape:window-maximized="1"
     inkscape:current-layer="layer1"
     showguides="true"><inkscape:grid
       type="xygrid"
       id="grid59" /></sodipodi:namedview><defs
     id="defs2"><clipPath
       clipPathUnits="userSpaceOnUse"
       id="clipPath8804"><path
         id="path8806"
         style="fill:#ff0000;fill-opacity:1;fill-rule:nonzero;stroke:none;stroke-width:0.264583"
         d="m 43.784409,86.820023 c -0.167844,0.07069 -0.336211,0.140253 -0.505397,0.20774 -0.183951,0.07338 -0.346818,0.09561 -0.482658,0.08165 V 108.76287 H 62.049959 V 86.820023 Z" /></clipPath><clipPath
       clipPathUnits="userSpaceOnUse"
       id="clipPath8814"><path
         id="path8816"
         style="fill:#ff0000;fill-opacity:1;fill-rule:nonzero;stroke:none;stroke-width:0.264583"
         d="m 5.6421673,90.337621 -2.1225371,5.695534 12.5140058,4.663555 2.122537,-5.695534 z m 11.1586767,5.475408 c 0.860213,0.312554 0.563886,1.220674 -0.371131,0.947009 -0.08156,-0.02387 -0.04042,-0.01207 -0.12467,-0.03542 -0.154114,-0.04018 -0.309719,-0.07093 -0.466884,-0.09678 -0.202471,-0.0394 -0.408038,-0.06668 -0.605033,-0.130069 -0.08442,-0.02559 -0.168354,-0.05322 -0.25226,-0.08077 0.487598,0.414763 0.111961,1.060535 -0.690545,0.762346 -0.104403,-0.03879 -0.209016,-0.07763 -0.313483,-0.11626 -0.206293,-0.07631 -0.412637,-0.152647 -0.619629,-0.227047 -0.170529,-0.06073 -0.340843,-0.122786 -0.515844,-0.169621 -0.162196,-0.04172 -0.326379,-0.07683 -0.494317,-0.08385 -0.331857,-0.0056 -0.663791,0.01597 -0.995119,0.03173 -0.395962,0.01897 -0.791823,0.03898 -1.188147,0.04804 -0.4732397,0.01081 -0.7323352,-0.208463 -0.7691051,-0.445997 -0.04934,0.0081 -0.098625,0.01639 -0.1480129,0.02425 -0.4363247,0.07161 -0.8720872,0.145409 -1.3075462,0.221924 -0.9904722,0.174035 -1.0974895,-0.825748 -0.1088806,-1.010081 0.4160815,-0.07758 0.8341973,-0.145962 1.2518574,-0.214555 0.4894494,-0.07892 0.9770994,-0.167747 1.4696944,-0.224921 0.351293,-0.04017 0.704161,-0.06081 1.057394,-0.07305 0.318213,-0.0066 0.636829,0.0016 0.954227,0.02472 0.316108,0.0213 0.631124,0.05229 0.945058,0.0952 0.243061,0.03502 0.482882,0.08748 0.72395,0.133574 0.224918,0.02845 0.445948,0.07733 0.664863,0.135272 0.212485,0.05499 0.417722,0.133591 0.62791,0.195948 0.1649,0.05118 0.336854,0.07319 0.505974,0.105837 0.178035,0.02893 0.354243,0.06597 0.528847,0.111052 0.104669,0.02884 0.05356,0.0144 0.154135,0.04366 0.0302,0.0087 0.05892,0.01781 0.08667,0.02789 z" /></clipPath></defs><g
     inkscape:label="Capa 1"
     inkscape:groupmode="layer"
     id="layer1"><path
       id="path1032"
       clip-path="url(#clipPath8804)"
       style="fill:#d9f04c;fill-opacity:1;stroke:none;stroke-width:0.0598171;stroke-linejoin:bevel;paint-order:stroke fill markers"
       d="M 52.423246,86.849945 A 9.597081,10.941522 0 0 0 42.826077,97.791398 9.597081,10.941522 0 0 0 52.423246,108.733 9.597081,10.941522 0 0 0 62.020263,97.791398 9.597081,10.941522 0 0 0 52.423246,86.849945 Z m -0.129072,2.055164 a 7.7470138,8.8322816 0 0 1 7.746886,8.83227 7.7470138,8.8322816 0 0 1 -7.746886,8.832271 7.7470138,8.8322816 0 0 1 -7.747037,-8.832271 7.7470138,8.8322816 0 0 1 7.747037,-8.83227 z"
       transform="matrix(3.4919913,0,0,3.4841421,-84.995156,-207.87337)"
       inkscape:export-filename="Noa logo png.png"
       inkscape:export-xdpi="96"
       inkscape:export-ydpi="96" /><path
       id="rect227"
       style="fill:#d9f04c;fill-opacity:1;stroke:none;stroke-width:0.1693;stroke-linejoin:bevel;stroke-dasharray:none;paint-order:stroke fill markers"
       d="m 49.00683,94.661405 -28.932084,0.142111 c -1.248784,0.0061 -2.262597,1.016226 -2.273247,2.264977 l -0.0124,1.486215 c -0.01905,0.16834 -0.03224,0.339242 -0.03256,0.513663 L 17.632518,166.7428 c -0.0043,2.32603 1.707044,4.23348 3.836975,4.27726 2.12993,0.0438 3.848217,-1.79362 3.852478,-4.11966 l 0.118339,-64.43378 25.556063,-0.12506 -0.117306,64.35834 c -0.0043,2.33043 1.706529,4.24168 3.836458,4.28553 2.12993,0.0438 3.848219,-1.79694 3.852479,-4.1274 l 0.116271,-63.5987 a 8.7935104,13.711782 26.205733 0 1 -5.98103,-0.008 8.7935104,13.711782 26.205733 0 1 -1.247469,-0.91209 l 0.1788,-0.001 a 8.7504463,13.452179 27.555511 0 1 -0.0026,-0.003 8.7504463,13.452179 27.555511 0 1 -2.625163,-7.674465 z" /><path
       id="path19427"
       style="fill:#d9f04c;fill-opacity:1;stroke:none;stroke-width:0.304561;stroke-linejoin:bevel;paint-order:stroke fill markers"
       inkscape:transform-center-x="0.00015692091"
       inkscape:transform-center-y="-12.75268"
       d="m 159.57827,94.849324 c -0.0132,0 -0.01,0.03149 0,0.08029 0.01,-0.04873 0.0132,-0.08029 0,-0.08029 z m 0,0.08029 c -0.52373,2.622408 -31.90146,74.491616 -33.36107,76.412206 1.98499,-0.71127 64.72736,-0.71116 66.72141,0 -1.45999,-1.92148 -32.83646,-73.789435 -33.36034,-76.412206 z m 33.36034,76.412206 c 0.0275,0.0357 0.0474,0.0542 0.0534,0.0402 0.005,-0.0142 -0.0167,-0.0283 -0.0534,-0.0402 z m -66.72141,0 c -0.037,0.0141 -0.0588,0.0283 -0.0528,0.0402 0.005,0.0142 0.0256,-0.003 0.0528,-0.0402 z m 33.36107,-61.26857 c 0.01,0 0.007,0.022 0,0.056 0.39043,1.83978 23.78505,52.26209 24.87414,53.61128 0.0275,0.0106 0.044,0.0177 0.0395,0.0283 -0.003,0.0105 -0.0194,-0.003 -0.0395,-0.0283 -1.47973,-0.49904 -48.26725,-0.49904 -49.74838,0 -0.0204,0.0248 -0.0351,0.0374 -0.0396,0.0283 -0.004,-0.0106 0.0121,-0.0178 0.0396,-0.0283 1.08914,-1.34922 24.48492,-51.77395 24.87424,-53.61128 -0.007,-0.0342 -0.01,-0.056 0,-0.056 z" /></g></svg>
