<svg width="36" height="21" viewBox="0 0 36 21" fill="none" xmlns="http://www.w3.org/2000/svg">
<path d="M12.25 19.1875C12.25 18.8063 12.4015 18.4406 12.671 18.171C12.9406 17.9014 13.3063 17.75 13.6875 17.75H22.3125C22.6937 17.75 23.0594 17.9014 23.329 18.171C23.5986 18.4406 23.75 18.8063 23.75 19.1875C23.75 19.5687 23.5986 19.9344 23.329 20.204C23.0594 20.4736 22.6937 20.625 22.3125 20.625H13.6875C13.3063 20.625 12.9406 20.4736 12.671 20.204C12.4015 19.9344 12.25 19.5687 12.25 19.1875ZM6.5 10.5625C6.5 10.1813 6.65145 9.81562 6.92103 9.54603C7.19062 9.27645 7.55625 9.125 7.9375 9.125H28.0625C28.4437 9.125 28.8094 9.27645 29.079 9.54603C29.3486 9.81562 29.5 10.1813 29.5 10.5625C29.5 10.9437 29.3486 11.3094 29.079 11.579C28.8094 11.8485 28.4437 12 28.0625 12H7.9375C7.55625 12 7.19062 11.8485 6.92103 11.579C6.65145 11.3094 6.5 10.9437 6.5 10.5625ZM0.75 1.9375C0.75 1.55625 0.901451 1.19062 1.17103 0.921034C1.44062 0.651451 1.80625 0.5 2.1875 0.5H33.8125C34.1937 0.5 34.5594 0.651451 34.829 0.921034C35.0985 1.19062 35.25 1.55625 35.25 1.9375C35.25 2.31875 35.0985 2.68438 34.829 2.95397C34.5594 3.22355 34.1937 3.375 33.8125 3.375H2.1875C1.80625 3.375 1.44062 3.22355 1.17103 2.95397C0.901451 2.68438 0.75 2.31875 0.75 1.9375Z" fill="#D9D9D9"/>
</svg>